<svg width="378" height="378" xmlns="http://www.w3.org/2000/svg" xmlns:xlink="http://www.w3.org/1999/xlink" overflow="hidden"><defs><clipPath id="clip0"><rect x="0" y="0" width="378" height="378"/></clipPath></defs><g clip-path="url(#clip0)"><rect x="0" y="0" width="378" height="378" fill="#FFFFFF" fill-opacity="0"/><path d="M335.389 255.398C344.1 259.374 369.974 259.374 374.53 241.163 379.086 222.952 349.553 207.763 328.307 208.081 346.366 197.226 351.395 148.915 338.269 137.105 329.794 129.471 301.418 135.276 294.784 145.495 294.784 131.419 285.341 101.399 273.207 96.0707 261.073 90.7425 233.877 94.1621 233.877 129.312 228.471 96.508 218.721 72.8495 201.252 69.6685 183.783 66.4876 170.138 73.8038 170.138 110.226 162.324 86.0903 141.455 73.4062 125.732 91.1402 110.01 108.874 117.729 129.312 119.429 142.195 112.559 132.93 96.0578 118.815 81.374 125.932 66.6902 133.05 66.7138 163.984 77.1011 180.605 62.134 167.802 39.8015 165.575 33.8052 181.52 27.809 197.464 30.1225 216.988 43.2482 228.638 34.183 225.338-0.307323 222.674 3.25738 242.237 6.82209 261.8 43.2482 271.74 56.964 264.702 37.3699 287.406 49.3389 310.071 62.4882 310.826 75.6375 311.582 107.035 310.508 120.68 280.528 119.358 305.856 139.306 314.763 155.029 313.013 170.751 311.264 172.64 294.007 172.64 285.697 172.215 300.409 185.081 316.473 201.228 314.206 217.376 311.94 216.597 300.926 220.87 281.124 227.527 290.707 254.132 318.063 268.793 315.876 283.453 313.689 288.387 287.327 288.387 275.836 295.469 286.691 322.546 299.693 330.219 291.502 340.771 280.528 340.417 265.657 335.46 255.398Z" stroke="#1D1D1B" stroke-width="6" stroke-linecap="round" stroke-linejoin="round" stroke-miterlimit="10" fill="#C6C6C6" fill-rule="evenodd"/><path d="M265.626 264.003C294.535 263.689 317.963 292.841 315.87 320.865 313.776 348.889 284.375 374.096 267.012 374.847 215.506 377.258 199.282 350.893 202.361 316.168 205.439 281.443 227.575 264.378 265.657 264.003Z" stroke="#1D1D1B" stroke-width="6" stroke-linecap="round" stroke-linejoin="round" stroke-miterlimit="10" fill="#FFFFFF" fill-rule="evenodd"/><path d="M142.634 261.032C171.275 262.1 189.45 296.102 188.992 320.403 188.787 346.623 170.486 369.009 145.357 373.777 102.427 380.841 84.4956 356.383 79.5079 324.233 74.5203 292.083 107.047 259.839 142.634 261.032Z" stroke="#1D1D1B" stroke-width="6" stroke-linecap="round" stroke-linejoin="round" stroke-miterlimit="10" fill="#FFFFFF" fill-rule="evenodd"/><path d="M141.166 317.014C151.569 317.393 158.183 329.635 157.996 338.374 157.927 347.8 151.283 355.849 142.16 357.558 126.634 360.114 120.02 351.248 118.188 339.731 116.356 328.215 128.187 316.541 141.166 317.014Z" stroke="#000000" stroke-width="6" stroke-miterlimit="8" fill="#1D1D1B" fill-rule="evenodd"/><path d="M267.741 317.076C278.395 317.481 285.181 330.016 284.996 338.902 284.929 348.561 278.11 356.808 268.754 358.545 252.727 361.165 246.065 352.122 244.192 340.274 242.319 328.425 254.447 316.546 267.741 317.013Z" stroke="#000000" stroke-width="6" stroke-miterlimit="8" fill="#1D1D1B" fill-rule="evenodd"/><path d="M134.5 322.636C136.127 322.145 137.855 323.029 138.36 324.611 138.866 326.192 137.956 327.873 136.33 328.364 135.734 328.544 135.096 328.544 134.5 328.364 132.873 328.856 131.145 327.971 130.64 326.39 130.134 324.808 131.044 323.127 132.67 322.636 133.266 322.456 133.904 322.456 134.5 322.636Z" stroke="#000000" stroke-width="0.333333" stroke-miterlimit="8" fill="#FFFFFF" fill-rule="evenodd"/><path d="M260.954 321.517C262.592 321.769 263.717 323.304 263.465 324.947 263.213 326.59 261.682 327.717 260.044 327.465 258.515 327.229 257.415 325.865 257.505 324.315 257.694 322.59 259.234 321.341 260.954 321.517Z" stroke="#000000" stroke-width="0.333333" stroke-miterlimit="8" fill="#FFFFFF" fill-rule="evenodd"/><path d="M212.955 178.824 167.932 162.642 200.004 111.949 149.021 110.976 174.843 7.2056 259.109 6.38164 218.432 61.3727 284.548 75.0616 225.592 139.389 271.964 150.864 180.232 270.472 212.955 178.824 212.955 178.824Z" stroke="#1D1D1B" stroke-width="6" stroke-linecap="round" stroke-linejoin="round" stroke-miterlimit="10" fill="#FFED00" fill-rule="evenodd"/></g></svg>