<svg xmlns="http://www.w3.org/2000/svg" viewBox="0 0 160.01 94.42"><defs><style>.cls-1{fill:#c6c6c6;stroke-width:2.4px;}.cls-1,.cls-2,.cls-3,.cls-6{stroke:#1d1d1b;stroke-linecap:round;stroke-linejoin:round;}.cls-1,.cls-2,.cls-3,.cls-4,.cls-5,.cls-6{fill-rule:evenodd;}.cls-2,.cls-3,.cls-5{fill:#fff;}.cls-2{stroke-width:2.22px;}.cls-3{stroke-width:2.22px;}.cls-4{fill:#1d1d1b;}.cls-6{fill:#ffed00;stroke-width:2.3px;}</style></defs><g id="Page_1" data-name="Page 1"><g id="Layer_1-2" data-name="Layer 1"><path class="cls-1" d="M142,64.31c3.69,1,14.65,1,16.58-3.58S148,52.33,139,52.41c7.65-2.73,9.78-14.88,4.22-17.85-3.59-1.92-15.61-.46-18.42,2.11,0-3.54-4-11.09-9.14-12.43S99,23.76,99,32.6c-2.29-8.25-6.42-14.2-13.82-15S72,18.64,72,27.8C68.69,21.73,59.85,18.54,53.19,23s-3.39,9.6-2.67,12.84c-2.91-2.33-9.9-5.88-16.12-4.09s-6.21,9.57-1.81,13.75c-6.34-3.22-15.8-3.78-18.34.23s-1.56,8.92,4,11.85C14.41,56.75-.2,56.08,1.31,61s16.94,7.42,22.75,5.65c-8.3,5.71-3.23,11.41,2.34,11.6s18.87-.08,24.65-7.62C50.49,77,58.94,79.24,65.6,78.8s7.46-4.78,7.46-6.87c-.18,3.7,5.27,7.74,12.11,7.17s6.51-3.34,8.32-8.32c2.82,2.41,14.09,9.29,20.3,8.74s8.3-7.18,8.3-10.07c3,2.73,14.47,6,17.72,3.94,4.47-2.76,4.32-6.5,2.22-9.08Z"/><path class="cls-2" d="M110.62,57.55c9.39-.1,17,9.21,16.32,18.16s-10.23,17-15.87,17.24c-16.73.77-22-7.65-21-18.74s8.19-16.54,20.56-16.66Z"/><path class="cls-3" d="M59,57c9.36.34,15.3,11.17,15.15,18.91a17.43,17.43,0,0,1-14.26,17C45.86,95.16,40,87.37,38.37,77.13S47.37,56.62,59,57Z"/><path class="cls-4" d="M50.37,71.92c3.35.12,5.48,4,5.42,6.77a6.23,6.23,0,0,1-5.1,6.08c-5,.81-7.13-2-7.72-5.65s3.22-7.35,7.4-7.2Z"/><path class="cls-4" d="M103,71.42c3.47.13,5.68,4.15,5.62,7a6.45,6.45,0,0,1-5.29,6.3c-5.22.84-7.39-2.06-8-5.86s3.34-7.61,7.67-7.46Z"/><path class="cls-5" d="M47.16,75.57a1,1,0,1,1,0,1.91,1,1,0,1,1,0-1.91Z"/><path class="cls-5" d="M99.58,75a1,1,0,1,1-1.15.93A1.05,1.05,0,0,1,99.58,75Z"/><polygon class="cls-6" points="81.63 43.17 70.3 40.9 76.22 27.92 63.99 29.42 66.58 4.2 86.71 1.15 78.88 15.43 95.17 16.4 83.29 33.49 94.78 34.61 76.97 65.78 81.63 43.17 81.63 43.17"/></g></g></svg>