<svg width="378" height="222" xmlns="http://www.w3.org/2000/svg" xmlns:xlink="http://www.w3.org/1999/xlink" overflow="hidden"><defs><clipPath id="clip0"><rect x="0" y="0" width="378" height="222"/></clipPath></defs><g clip-path="url(#clip0)"><rect x="0" y="0" width="378" height="221.833" fill="#FFFFFF" fill-opacity="0"/><path d="M335.389 151.065C344.1 153.414 369.974 153.414 374.53 142.657 379.086 131.901 349.553 122.929 328.307 123.117 346.366 116.706 351.395 88.1708 338.269 81.1956 329.794 76.6864 301.418 80.1153 294.784 86.1511 294.784 77.8371 285.341 60.1056 273.207 56.9585 261.073 53.8115 233.877 55.8312 233.877 76.5924 228.471 57.2169 218.721 43.2429 201.252 41.3642 183.783 39.4853 170.138 43.8066 170.138 65.3194 162.324 51.0637 141.455 43.5718 125.732 54.0463 110.01 64.5209 117.729 76.5924 119.429 84.2017 112.559 78.7296 96.0577 70.3922 81.3741 74.5961 66.6902 78.8001 66.7139 97.0718 77.1011 106.889 62.134 99.3264 39.8015 98.0113 33.8053 107.429 27.809 116.847 30.1226 128.378 43.2482 135.259 34.183 133.31-0.30733 131.736 3.2574 143.291 6.82213 154.846 43.2482 160.718 56.964 156.561 37.3699 169.971 49.3389 183.358 62.4882 183.804 75.6375 184.25 107.035 183.616 120.68 165.908 119.358 180.868 139.306 186.129 155.029 185.096 170.751 184.062 172.64 173.87 172.64 168.961 172.215 177.651 185.081 187.139 201.228 185.8 217.376 184.462 216.597 177.956 220.87 166.26 227.527 171.92 254.132 188.078 268.793 186.787 283.453 185.495 288.387 169.924 288.387 163.137 295.469 169.548 322.547 177.228 330.219 172.39 340.771 165.908 340.417 157.124 335.46 151.065Z" stroke="#1D1D1B" stroke-width="5.67003" stroke-linecap="round" stroke-linejoin="round" stroke-miterlimit="10" fill="#C6C6C6" fill-rule="evenodd"/><path d="M261.615 135.4C283.931 135.164 302.016 157.208 300.4 178.399 298.784 199.591 276.088 218.651 262.685 219.22 222.926 221.043 210.402 201.106 212.778 174.848 215.155 148.589 232.242 135.684 261.639 135.4Z" stroke="#1D1D1B" stroke-width="5.24472" stroke-linecap="round" stroke-linejoin="round" stroke-miterlimit="10" fill="#FFFFFF" fill-rule="evenodd"/><path d="M139.672 134.423C161.803 135.228 175.848 160.86 175.494 179.178 175.336 198.943 161.194 215.819 141.776 219.413 108.603 224.738 94.7466 206.301 90.8925 182.066 87.0384 157.83 112.173 133.524 139.672 134.423Z" stroke="#1D1D1B" stroke-width="5.24472" stroke-linecap="round" stroke-linejoin="round" stroke-miterlimit="10" fill="#FFFFFF" fill-rule="evenodd"/><path d="M144.954 174.879C153.016 175.156 158.141 184.107 157.997 190.497 157.943 197.388 152.794 203.273 145.724 204.523 133.692 206.392 128.566 199.909 127.146 191.489 125.726 183.069 134.895 174.533 144.954 174.879Z" fill="#1D1D1B" fill-rule="evenodd"/><path d="M268.951 172.928C277.006 173.236 282.137 182.779 281.997 189.545 281.946 196.899 276.79 203.178 269.717 204.5 257.599 206.494 252.561 199.61 251.145 190.589 249.729 181.569 258.899 172.524 268.951 172.88Z" fill="#1D1D1B" fill-rule="evenodd"/><path d="M137 182.976C138.22 182.567 139.516 183.303 139.895 184.62 140.274 185.937 139.592 187.337 138.372 187.746 137.925 187.896 137.447 187.896 137 187.746 135.78 188.155 134.484 187.419 134.105 186.102 133.726 184.784 134.408 183.385 135.628 182.976 136.075 182.826 136.553 182.826 137 182.976Z" fill="#FFFFFF" fill-rule="evenodd"/><path d="M260.879 181.877C262.243 182.087 263.181 183.366 262.971 184.734 262.761 186.102 261.485 187.04 260.12 186.83 258.846 186.634 257.929 185.498 258.004 184.207 258.162 182.771 259.445 181.731 260.879 181.877Z" fill="#FFFFFF" fill-rule="evenodd"/><path d="M193.365 101.898 166.476 96.5286 180.526 65.8239 151.5 69.3722 157.647 9.7131 205.422 2.49818 186.839 36.2782 225.5 38.5728 197.305 78.9999 224.574 81.6494 182.306 155.383 193.365 101.898 193.365 101.898Z" stroke="#1D1D1B" stroke-width="5.4337" stroke-linecap="round" stroke-linejoin="round" stroke-miterlimit="10" fill="#FFED00" fill-rule="evenodd"/></g></svg>