<svg width="378" height="223" xmlns="http://www.w3.org/2000/svg" xmlns:xlink="http://www.w3.org/1999/xlink" overflow="hidden"><defs><clipPath id="clip0"><rect x="0" y="0" width="378" height="223"/></clipPath></defs><g clip-path="url(#clip0)"><rect x="0" y="0" width="378" height="223" fill="#FFFFFF" fill-opacity="0"/><path d="M-1 0 378 0 378 222-1 222Z" fill="#FFFFFF" fill-rule="evenodd" fill-opacity="0"/><path d="M335.389 151.178C344.1 153.529 369.974 153.529 374.53 142.764 379.086 132 349.553 123.021 328.307 123.209 346.366 116.793 351.395 88.2368 338.269 81.2565 329.794 76.7439 301.418 80.1753 294.784 86.2157 294.784 77.8954 285.341 60.1506 273.207 57.0012 261.073 53.8518 233.877 55.8731 233.877 76.6498 228.471 57.2598 218.721 43.2753 201.252 41.3953 183.783 39.5149 170.138 43.8394 170.138 65.3684 162.324 51.1019 141.455 43.6045 125.732 54.0868 110.01 64.5692 117.729 76.6498 119.429 84.2648 112.559 78.7886 96.0576 70.4449 81.374 74.6519 66.6902 78.8592 66.7139 97.1446 77.1011 106.969 62.1339 99.4008 39.8015 98.0847 33.8052 107.509 27.809 116.934 30.1226 128.474 43.2482 135.36 34.183 133.41-0.3074 131.835 3.25743 143.398 6.82215 154.962 43.2482 160.838 56.964 156.678 37.3699 170.098 49.3389 183.495 62.4882 183.942 75.6375 184.388 107.035 183.753 120.68 166.032 119.358 181.003 139.306 186.268 155.029 185.235 170.751 184.2 172.64 174 172.64 169.087 172.215 177.784 185.081 187.279 201.228 185.939 217.376 184.6 216.597 178.089 220.87 166.384 227.527 172.049 254.132 188.219 268.793 186.927 283.453 185.634 288.387 170.051 288.387 163.259 295.469 169.675 322.547 177.361 330.219 172.519 340.771 166.032 340.417 157.242 335.46 151.178Z" stroke="#1D1D1B" stroke-width="5.67003" stroke-linecap="round" stroke-linejoin="round" stroke-miterlimit="10" fill="#C6C6C6" fill-rule="evenodd"/><path d="M261.615 136.502C283.931 136.266 302.016 158.326 300.4 179.533 298.784 200.741 276.088 219.815 262.685 220.384 222.926 222.209 210.402 202.257 212.778 175.979 215.155 149.701 232.242 136.786 261.639 136.502Z" stroke="#1D1D1B" stroke-width="5.24472" stroke-linecap="round" stroke-linejoin="round" stroke-miterlimit="10" fill="#FFFFFF" fill-rule="evenodd"/><path d="M139.672 135.524C161.803 136.33 175.848 161.981 175.494 180.313 175.336 200.092 161.194 216.981 141.776 220.577 108.603 225.906 94.7466 207.456 90.8926 183.203 87.0384 158.949 112.173 134.625 139.672 135.524Z" stroke="#1D1D1B" stroke-width="5.24472" stroke-linecap="round" stroke-linejoin="round" stroke-miterlimit="10" fill="#FFFFFF" fill-rule="evenodd"/><path d="M133.954 173.01C142.016 173.287 147.141 182.245 146.997 188.64 146.943 195.536 141.794 201.426 134.724 202.676 122.692 204.547 117.566 198.059 116.146 189.633 114.726 181.206 123.895 172.664 133.954 173.01Z" fill="#1D1D1B" fill-rule="evenodd"/><path d="M257.951 171.058C266.006 171.366 271.137 180.917 270.997 187.688 270.946 195.047 265.79 201.331 258.717 202.654 246.599 204.649 241.561 197.76 240.145 188.732 238.729 179.706 247.899 170.654 257.951 171.01Z" fill="#1D1D1B" fill-rule="evenodd"/><path d="M126 181.113C127.22 180.704 128.516 181.44 128.895 182.758 129.274 184.076 128.592 185.478 127.372 185.887 126.925 186.037 126.447 186.037 126 185.887 124.78 186.296 123.484 185.56 123.105 184.242 122.726 182.923 123.408 181.522 124.628 181.113 125.075 180.963 125.553 180.963 126 181.113Z" fill="#FFFFFF" fill-rule="evenodd"/><path d="M249.879 180.014C251.243 180.224 252.181 181.504 251.971 182.873 251.761 184.242 250.485 185.181 249.12 184.971 247.846 184.775 246.929 183.638 247.004 182.345 247.162 180.908 248.445 179.868 249.879 180.014Z" fill="#FFFFFF" fill-rule="evenodd"/><path d="M193.365 102.625 166.476 97.2164 180.526 66.2877 151.5 69.8619 157.647 9.76759 205.422 2.50005 186.839 36.5265 225.5 38.8379 197.305 79.5599 224.574 82.2286 182.306 156.5 193.365 102.625 193.365 102.625Z" stroke="#1D1D1B" stroke-width="5.4337" stroke-linecap="round" stroke-linejoin="round" stroke-miterlimit="10" fill="#FFED00" fill-rule="evenodd"/><path d="M109.332 116.019 191.843 154.4 187.06 164.681 104.55 126.3Z" fill-rule="evenodd"/><path d="M283.249 123.578 202.651 165.826 197.387 155.784 277.985 113.535Z" fill-rule="evenodd"/></g></svg>