<svg width="378" height="222" xmlns="http://www.w3.org/2000/svg" xmlns:xlink="http://www.w3.org/1999/xlink" overflow="hidden"><defs><clipPath id="clip0"><rect x="0" y="0" width="378" height="222"/></clipPath></defs><g clip-path="url(#clip0)"><rect x="0" y="0" width="378" height="221.833" fill="#FFFFFF" fill-opacity="0"/><path d="M335.389 151.065C344.1 153.414 369.974 153.414 374.53 142.657 379.086 131.901 349.553 122.929 328.307 123.117 346.366 116.706 351.395 88.1708 338.269 81.1956 329.794 76.6864 301.418 80.1153 294.784 86.1511 294.784 77.8371 285.341 60.1056 273.207 56.9585 261.073 53.8115 233.877 55.8312 233.877 76.5924 228.471 57.2169 218.721 43.2429 201.252 41.3642 183.783 39.4853 170.138 43.8066 170.138 65.3194 162.324 51.0637 141.455 43.5718 125.732 54.0463 110.01 64.5209 117.729 76.5924 119.429 84.2017 112.559 78.7296 96.0577 70.3922 81.3741 74.5961 66.6902 78.8001 66.7139 97.0718 77.1011 106.889 62.134 99.3264 39.8015 98.0113 33.8053 107.429 27.809 116.847 30.1226 128.378 43.2482 135.259 34.183 133.31-0.30733 131.736 3.2574 143.291 6.82213 154.846 43.2482 160.718 56.964 156.561 37.3699 169.971 49.3389 183.358 62.4882 183.804 75.6375 184.25 107.035 183.616 120.68 165.908 119.358 180.868 139.306 186.129 155.029 185.096 170.751 184.062 172.64 173.87 172.64 168.961 172.215 177.651 185.081 187.139 201.228 185.8 217.376 184.462 216.597 177.956 220.87 166.26 227.527 171.92 254.132 188.078 268.793 186.787 283.453 185.495 288.387 169.924 288.387 163.137 295.469 169.548 322.547 177.228 330.219 172.39 340.771 165.908 340.417 157.124 335.46 151.065Z" stroke="#1D1D1B" stroke-width="5.67003" stroke-linecap="round" stroke-linejoin="round" stroke-miterlimit="10" fill="#C6C6C6" fill-rule="evenodd"/><path d="M261.615 135.4C283.931 135.164 302.016 157.208 300.4 178.399 298.784 199.591 276.088 218.651 262.685 219.22 222.926 221.043 210.402 201.106 212.778 174.848 215.155 148.589 232.242 135.684 261.639 135.4Z" stroke="#1D1D1B" stroke-width="5.24472" stroke-linecap="round" stroke-linejoin="round" stroke-miterlimit="10" fill="#FFFFFF" fill-rule="evenodd"/><path d="M139.672 134.423C161.803 135.228 175.848 160.86 175.494 179.178 175.336 198.943 161.194 215.819 141.776 219.413 108.603 224.738 94.7466 206.301 90.8925 182.066 87.0384 157.83 112.173 133.524 139.672 134.423Z" stroke="#1D1D1B" stroke-width="5.24472" stroke-linecap="round" stroke-linejoin="round" stroke-miterlimit="10" fill="#FFFFFF" fill-rule="evenodd"/><path d="M116.375 170.882C124.176 171.168 129.137 180.418 128.997 187.021 128.945 194.142 123.962 200.223 117.12 201.515 105.476 203.446 100.515 196.747 99.1411 188.046 97.7672 179.345 106.64 170.525 116.375 170.882Z" fill="#1D1D1B" fill-rule="evenodd"/><path d="M240.53 169.928C248.845 170.227 254.141 179.472 253.997 186.026 253.944 193.15 248.622 199.233 241.321 200.514 228.812 202.446 223.612 195.777 222.15 187.038 220.688 178.299 230.154 169.537 240.53 169.882Z" fill="#1D1D1B" fill-rule="evenodd"/><path d="M109 178.979C110.22 178.57 111.516 179.306 111.895 180.623 112.274 181.94 111.592 183.34 110.372 183.749 109.925 183.899 109.447 183.899 109 183.749 107.78 184.158 106.484 183.422 106.105 182.105 105.726 180.787 106.408 179.388 107.628 178.979 108.075 178.829 108.553 178.829 109 178.979Z" fill="#FFFFFF" fill-rule="evenodd"/><path d="M232.879 177.88C234.243 178.09 235.181 179.369 234.971 180.737 234.761 182.105 233.485 183.043 232.12 182.833 230.846 182.637 229.929 181.501 230.004 180.21 230.162 178.774 231.445 177.734 232.879 177.88Z" fill="#FFFFFF" fill-rule="evenodd"/><path d="M193.365 101.898 166.476 96.5286 180.526 65.8239 151.5 69.3722 157.647 9.7131 205.422 2.49818 186.839 36.2782 225.5 38.5728 197.305 78.9999 224.574 81.6494 182.306 155.383 193.365 101.898 193.365 101.898Z" stroke="#1D1D1B" stroke-width="5.4337" stroke-linecap="round" stroke-linejoin="round" stroke-miterlimit="10" fill="#FFED00" fill-rule="evenodd"/></g></svg>